<svg width="19" height="23" viewBox="0 0 19 23" fill="none" xmlns="http://www.w3.org/2000/svg">
<path d="M10.955 9.21606C10.955 9.60266 11.2684 9.91606 11.655 9.91606C12.0416 9.91606 12.355 9.60266 12.355 9.21606H10.955ZM7.86719 1.1239V0.423901V1.1239ZM3.37937 9.21606C3.37937 9.60266 3.69277 9.91606 4.07937 9.91606C4.46597 9.91606 4.77937 9.60266 4.77937 9.21606H3.37937ZM15.2154 6.84023C15.2154 7.22683 15.5288 7.54023 15.9154 7.54023C16.302 7.54023 16.6154 7.22683 16.6154 6.84023H15.2154ZM15.9154 4.9291H16.6154L16.6153 4.91982L15.9154 4.9291ZM11.9367 0.492385C11.5501 0.492445 11.2367 0.805894 11.2368 1.19249C11.2368 1.57909 11.5503 1.89244 11.9369 1.89238L11.9367 0.492385ZM6.69349 13.1589C6.69349 13.5455 7.00689 13.8589 7.39349 13.8589C7.78009 13.8589 8.09349 13.5455 8.09349 13.1589H6.69349ZM7.39349 6.84009H8.09349C8.09349 6.45349 7.78009 6.14009 7.39349 6.14009V6.84009ZM1.23828 6.84009V6.14009C0.851682 6.14009 0.538281 6.45349 0.538281 6.84009H1.23828ZM1.23828 22H0.538281C0.538281 22.3866 0.851682 22.7 1.23828 22.7L1.23828 22ZM9.69406 6.14009C9.30746 6.14009 8.99406 6.45349 8.99406 6.84009C8.99406 7.22668 9.30746 7.54008 9.69406 7.54008V6.14009ZM14.9698 22V22.7H15.2598L15.4648 22.495L14.9698 22ZM15.9168 21.053L16.4117 20.558L15.9168 20.0631L15.4218 20.558L15.9168 21.053ZM16.8637 22L16.3687 22.495L16.5738 22.7H16.8637V22ZM17.3372 22V22.7H18.0372V22H17.3372ZM17.3372 6.84009H18.0372V6.14009H17.3372V6.84009ZM7.8675 13.4774L8.36247 12.9824C8.2312 12.8512 8.05315 12.7774 7.8675 12.7774V13.4774ZM9.28793 14.8979H9.98793C9.98793 14.7122 9.91418 14.5342 9.78291 14.4029L9.28793 14.8979ZM9.28793 18.6857V19.3857C9.67453 19.3857 9.98793 19.0723 9.98793 18.6857H9.28793ZM5.50011 18.6857H4.80011C4.80011 19.0723 5.11351 19.3857 5.50011 19.3857V18.6857ZM5.50011 14.8979L5.00513 14.4029C4.87386 14.5342 4.80011 14.7122 4.80011 14.8979H5.50011ZM6.92054 13.4774V12.7774C6.73489 12.7774 6.55684 12.8512 6.42557 12.9824L6.92054 13.4774ZM3.13272 8.51616C2.74613 8.51616 2.43272 8.82956 2.43272 9.21616C2.43272 9.60276 2.74613 9.91616 3.13272 9.91616V8.51616ZM5.02664 9.91616C5.41324 9.91616 5.72664 9.60276 5.72664 9.21616C5.72664 8.82956 5.41324 8.51616 5.02664 8.51616V9.91616ZM10.7074 8.51616C10.3208 8.51616 10.0074 8.82956 10.0074 9.21616C10.0074 9.60276 10.3208 9.91616 10.7074 9.91616V8.51616ZM12.6014 9.91616C12.988 9.91616 13.3014 9.60276 13.3014 9.21616C13.3014 8.82956 12.988 8.51616 12.6014 8.51616V9.91616ZM12.355 9.21606V4.91172H10.955V9.21606H12.355ZM12.355 4.91172C12.355 3.72148 11.8822 2.57998 11.0406 1.73835L10.0506 2.7283C10.6297 3.30738 10.955 4.09278 10.955 4.91172H12.355ZM11.0406 1.73835C10.1989 0.896725 9.05744 0.423901 7.86719 0.423901V1.8239C8.68614 1.8239 9.47153 2.14922 10.0506 2.7283L11.0406 1.73835ZM7.86719 0.423901C6.67695 0.423901 5.53546 0.896725 4.69383 1.73835L5.68378 2.7283C6.26285 2.14922 7.04825 1.8239 7.86719 1.8239V0.423901ZM4.69383 1.73835C3.8522 2.57998 3.37937 3.72148 3.37937 4.91172H4.77937C4.77937 4.09278 5.1047 3.30738 5.68378 2.7283L4.69383 1.73835ZM3.37937 4.91172V9.21606H4.77937V4.91172H3.37937ZM16.6154 6.84023V4.9291H15.2154V6.84023H16.6154ZM16.6153 4.91982C16.6063 4.23936 16.4435 3.56975 16.1392 2.96108L14.887 3.58718C15.0969 4.00706 15.2092 4.46898 15.2154 4.93838L16.6153 4.91982ZM16.1392 2.96108C15.8348 2.3524 15.3968 1.82043 14.8578 1.40494L14.0031 2.51371C14.3749 2.80033 14.677 3.1673 14.887 3.58718L16.1392 2.96108ZM14.8578 1.40494C14.3189 0.989454 13.6929 0.701213 13.0269 0.561778L12.74 1.93208C13.1995 2.02826 13.6313 2.2271 14.0031 2.51371L14.8578 1.40494ZM13.0269 0.561778C12.8965 0.53449 12.8319 0.518472 12.7853 0.507466C12.7357 0.495723 12.6444 0.473131 12.5217 0.475563C12.3719 0.478531 12.4116 0.492312 11.9367 0.492385L11.9369 1.89238C12.3593 1.89232 12.5909 1.87447 12.5494 1.87529C12.4809 1.87665 12.4228 1.86035 12.4632 1.8699C12.5067 1.88019 12.589 1.90046 12.74 1.93208L13.0269 0.561778ZM8.09349 13.1589V6.84009H6.69349V13.1589H8.09349ZM7.39349 6.14009H1.23828V7.54008H7.39349V6.14009ZM0.538281 6.84009V22H1.93828V6.84009H0.538281ZM1.23828 22.7H14.4957V21.3H1.23828V22.7ZM15.1957 22V6.84009H13.7957V22H15.1957ZM14.4957 6.14009H9.69406V7.54008H14.4957V6.14009ZM14.4957 22.7H14.9698V21.3H14.4957V22.7ZM15.4648 22.495L16.4117 21.548L15.4218 20.558L14.4748 21.505L15.4648 22.495ZM15.4218 21.548L16.3687 22.495L17.3587 21.505L16.4117 20.558L15.4218 21.548ZM16.8637 22.7H17.3372V21.3H16.8637V22.7ZM18.0372 22V6.84009H16.6372V22H18.0372ZM17.3372 6.14009H14.4957V7.54008H17.3372V6.14009ZM7.37252 13.9724L8.79296 15.3928L9.78291 14.4029L8.36247 12.9824L7.37252 13.9724ZM8.58793 14.8979V18.6857H9.98793V14.8979H8.58793ZM9.28793 17.9857H5.50011V19.3857H9.28793V17.9857ZM6.20011 18.6857V14.8979H4.80011V18.6857H6.20011ZM5.99508 15.3928L7.41552 13.9724L6.42557 12.9824L5.00513 14.4029L5.99508 15.3928ZM6.92054 14.1774H7.8675V12.7774H6.92054V14.1774ZM3.13272 9.91616H5.02664V8.51616H3.13272V9.91616ZM10.7074 9.91616H12.6014V8.51616H10.7074V9.91616Z" fill="white"/>
</svg>
